<svg width="1289" height="694" viewBox="0 0 1289 694" fill="none" xmlns="http://www.w3.org/2000/svg">
<path d="M720 94.0002H562V532H720V94.0002Z" fill="white"/>
<path fill-rule="evenodd" clip-rule="evenodd" d="M804 532V0H963V188L1060 94H1282V532H804ZM964 407V375.5L1122 221V407H964Z" fill="white"/>
<path fill-rule="evenodd" clip-rule="evenodd" d="M478 532V0.000152588H319V188L222 94.0002H0V532H478ZM318 407V375.5L160 221V407H318Z" fill="white"/>
<path d="M4.346 587.8H22.154C27.9487 587.8 32.2947 589.355 35.192 592.464C38.0893 595.573 39.538 600.131 39.538 606.138V643.662C39.538 649.669 38.0893 654.227 35.192 657.336C32.2947 660.445 27.9487 662 22.154 662H4.346V587.8ZM21.942 651.4C23.85 651.4 25.2987 650.835 26.288 649.704C27.348 648.573 27.878 646.736 27.878 644.192V605.608C27.878 603.064 27.348 601.227 26.288 600.096C25.2987 598.965 23.85 598.4 21.942 598.4H16.006V651.4H21.942ZM142.067 663.06C136.343 663.06 131.961 661.435 128.923 658.184C125.884 654.933 124.365 650.34 124.365 644.404V605.396C124.365 599.46 125.884 594.867 128.923 591.616C131.961 588.365 136.343 586.74 142.067 586.74C147.791 586.74 152.172 588.365 155.211 591.616C158.249 594.867 159.769 599.46 159.769 605.396V644.404C159.769 650.34 158.249 654.933 155.211 658.184C152.172 661.435 147.791 663.06 142.067 663.06ZM142.067 652.46C146.095 652.46 148.109 650.022 148.109 645.146V604.654C148.109 599.778 146.095 597.34 142.067 597.34C138.039 597.34 136.025 599.778 136.025 604.654V645.146C136.025 650.022 138.039 652.46 142.067 652.46ZM261.994 663.06C256.341 663.06 252.03 661.47 249.062 658.29C246.094 655.039 244.61 650.411 244.61 644.404V605.396C244.61 599.389 246.094 594.796 249.062 591.616C252.03 588.365 256.341 586.74 261.994 586.74C267.647 586.74 271.958 588.365 274.926 591.616C277.894 594.796 279.378 599.389 279.378 605.396V611.756H268.354V604.654C268.354 599.778 266.34 597.34 262.312 597.34C258.284 597.34 256.27 599.778 256.27 604.654V645.252C256.27 650.057 258.284 652.46 262.312 652.46C266.34 652.46 268.354 650.057 268.354 645.252V630.73H262.524V620.13H279.378V644.404C279.378 650.411 277.894 655.039 274.926 658.29C271.958 661.47 267.647 663.06 261.994 663.06ZM459.449 587.8H471.109V662H459.449V587.8ZM557.645 587.8H572.273L583.615 632.214H583.827V587.8H594.215V662H582.237L568.245 607.834H568.033V662H557.645V587.8ZM775.466 587.8H793.062C799.069 587.8 803.45 589.213 806.206 592.04C808.962 594.796 810.34 599.071 810.34 604.866V607.834C810.34 611.65 809.704 614.759 808.432 617.162C807.231 619.565 805.358 621.296 802.814 622.356V622.568C808.609 624.547 811.506 629.705 811.506 638.044V644.404C811.506 650.128 809.987 654.509 806.948 657.548C803.98 660.516 799.599 662 793.804 662H775.466V587.8ZM791.684 618.01C794.016 618.01 795.748 617.409 796.878 616.208C798.08 615.007 798.68 612.993 798.68 610.166V606.032C798.68 603.347 798.186 601.403 797.196 600.202C796.278 599.001 794.794 598.4 792.744 598.4H787.126V618.01H791.684ZM793.804 651.4C795.854 651.4 797.373 650.87 798.362 649.81C799.352 648.679 799.846 646.771 799.846 644.086V637.62C799.846 634.228 799.246 631.896 798.044 630.624C796.914 629.281 795.006 628.61 792.32 628.61H787.126V651.4H793.804ZM896.126 587.8H907.786V651.4H926.972V662H896.126V587.8ZM1019.79 587.8H1035.59L1047.67 662H1036.01L1033.89 647.266V647.478H1020.64L1018.52 662H1007.71L1019.79 587.8ZM1032.51 637.408L1027.32 600.732H1027.11L1022.02 637.408H1032.51ZM1147.35 663.06C1141.77 663.06 1137.5 661.47 1134.53 658.29C1131.63 655.11 1130.18 650.623 1130.18 644.828V604.972C1130.18 599.177 1131.63 594.69 1134.53 591.51C1137.5 588.33 1141.77 586.74 1147.35 586.74C1152.94 586.74 1157.18 588.33 1160.07 591.51C1163.04 594.69 1164.53 599.177 1164.53 604.972V612.816H1153.5V604.23C1153.5 599.637 1151.56 597.34 1147.67 597.34C1143.78 597.34 1141.84 599.637 1141.84 604.23V645.676C1141.84 650.199 1143.78 652.46 1147.67 652.46C1151.56 652.46 1153.5 650.199 1153.5 645.676V634.334H1164.53V644.828C1164.53 650.623 1163.04 655.11 1160.07 658.29C1157.18 661.47 1152.94 663.06 1147.35 663.06ZM1249.31 587.8H1260.97V619.07L1275.81 587.8H1287.47L1273.58 615.042L1287.68 662H1275.49L1265.63 628.928L1260.97 638.362V662H1249.31V587.8Z" fill="white"/>
</svg>
